<?xml version="1.0" encoding="utf-8"?>
<!-- Generator: Adobe Illustrator 21.0.2, SVG Export Plug-In . SVG Version: 6.00 Build 0)  -->
<svg version="1.1" id="preloader" xmlns="http://www.w3.org/2000/svg" xmlns:xlink="http://www.w3.org/1999/xlink" x="0px" y="0px"
	 viewBox="0 0 50 50" style="enable-background:new 0 0 50 50;" xml:space="preserve">
<style type="text/css">
  .huella{width: 50px; height: auto}
	.huella-01 {fill:#F4A822;animation: opacity 1s ease-in-out infinite;}
	.huella-02 {fill:#F4A822;animation: opacity 1.5s ease-in-out infinite;}
	.huella-03 {fill:#F4A822;animation: opacity 2s ease-in-out infinite;}
	.huella-04 {fill:#F4A822;animation: opacity 2.5s ease-in-out infinite;}

  .loader{
  width: 100%;
  height: 100%;

  }

  .circle{
    stroke-dasharray: 1, 200;
    stroke-dashoffset: 0;
    animation: dash 1.5s ease-in-out infinite, rotate 2.5s linear infinite, color 2s ease-in-out infinite;
    stroke-linecap: round;
    stroke:#F4A822;
    stroke-width: 1.5;
    transform-origin: center center;
    position: absolute;
  }

@keyframes opacity {
    0% {
        opacity: 0.5;
    }
    50% {
        opacity: 1;
    }
    100% {
        opacity: 0.5;
    }
}

  @keyframes rotate {
    100% {
      transform: rotate(360deg);
    }
  }

  @keyframes dash {
    0% {
      stroke-dasharray: 2, 200;
      stroke-dashoffset: 0;
    }
    50% {
      stroke-dasharray: 89, 200;
      stroke-dashoffset: -42px;
    }
    100% {
      stroke-dasharray: 95, 200;
      stroke-dashoffset: -140px;
    }
  }
  @keyframes color {
    0% {
        stroke: #F4A822;
    }
    60% {
        stroke: #4c382d;
    }
    100% {
        stroke: #F4A822;
    }
}

</style>
 <g id="loader">
   <g id="huella">
     <path class="huella-01" d="M19.5,35L17,34.3c-0.4-0.1-0.4-0.3-0.6-0.7c-0.2-0.3-0.1-0.1-0.6-0.3c-0.4-0.2-1.3-2.4-1.6-2.7
		  c-1.4-1.5-1.6-3.5-1.6-4c-0.1-0.4-0.1-1.5-0.1-1.5s-0.2-0.7-0.1-0.8c0.2-0.2,0.2,0.2,0.5,0.4c1,0.1,1.5,2.4,1.5,2.9
		  c0,1.5,0.8,2.4,1.5,2.9c0.7,0.4,1.8,2.8,1.8,2.8s1.7,0.5,1.9,0.6s0.1,0.6,0.1,0.6S19.8,35.1,19.5,35z M29.5,16
		  c0.2,0.3,2.4,2.6,2.5,3.7c0.1,1.1,0.7,1.6,0.8,1.8c0.2,0.1,0.5,0.2,0.9,0c0.3-0.1,0.1-0.8-0.1-1.2c-0.1-0.4-1.5-1.5-1.8-2.4
		  c-0.3-1-1.5-2.4-1.6-2.6c-0.1-0.2-0.5-0.3-0.8-0.2s-0.1,0.2-0.1,0.4C29.2,15.7,29.4,15.8,29.5,16z M28.1,14.6c0,0,0.4,0.5,0.8-0.3
		  s0.3-0.7,0.2-0.7c-0.1-0.1-2.4-2.5-2.9-2.9c-0.5-0.4-1.6-1-1.8-1.2l-0.3-0.1c-0.1,0-0.5-0.1-0.5,0.1c0,0.3,0.1,0.5,0.2,0.7
		  c0.1,0.1,0.7,1.2,2.4,2C27,13.4,27.8,14.5,28.1,14.6L28.1,14.6z"/>
     <path class="huella-02" d="M12.6,23.9c0,0,0.5,0.1,0.5-0.7c0-1-0.9-4-0.5-6.1c-0.1-0.7,1-8.7,9.3-5.2
	    c0.6,0.2,0.4,0.6,0.4,0.6s-8.5-3.2-8.1,7.1c-0.1,1.8,0.1,7.1,4.5,12.1c0.7,0.2,0.7-0.2,0.7-0.2s-0.6-1.5-0.8-1.8
	    c-0.2-0.4-0.6-0.7-0.7-0.9c-0.2-0.1-0.7-2.7-1.2-3.3c-0.5-0.6-1-4-1.2-4.6c0-0.6,0.1,0.2,0.9-3.9c0,0,1-4.4,7.1-2.6
	    c0.6,0.3,2.6,1.3,2.9,1.7c0.4,0.4,6.2,8.1,6.2,8.1s0.7,1,1,1.1c0.3,0.2,4.1,6,4.1,7.2c0,1.2-0.1,5.4-1.5,6.2s-4,1.1-5.2,0.7
	    l-1.4-0.3l-0.7-0.2c0,0-1.5-2.1-2.4-2.6c-1-0.5-1.2-1.4-1.2-1.4s-1.4-1.7-1.6-2.2c-0.6-0.5-1.7-1.8-1.7-1.8l-1.6-3.3l-1.8-0.5
	    c0,0,3,8.3,8.8,13.2c2.5,1.1,5.9,0.7,5.9,0.7l1.1-0.6l1-0.4c0,0,1.8,0,2.4-1.2c0.6-1.2,1-4.9,1-4.9s0.1-0.7,0.1-1
	    c0.1-0.2,0.1-1.3,0.1-1.3s0.1-0.7-0.6-1.5c-0.7-1-2.7-4.9-3.3-5.7c-0.6-0.7-1.1-0.7-1.1-0.7l-1.2-1.1c0,0-6.7-9.2-12.3-12.9
	    c-1.7-0.5-4-1-5-0.6c-1,0.5-5.6,3.5-4.3,11.5C11.5,22,11.7,23.2,12.6,23.9z"/>
     <path class="huella-03" d="M17.8,26.7c0.1,0,0.1,0,0.1,0c0.4,0.1,1.6,0.1,1.6-0.2c0-0.3-1.5-7.1,0.1-8.8
		  c0,0,1.1-0.9,1.9-1s2.8,1,2.8,1l4,5.7c0,0,0.4,1.3,0.7,1.8c0.4,0.5,1.3,1.5,2.1,1.9c0.7,0.4,1.9,2.7,1.9,2.7s1.4,2.9,1.1,3.2
		  c-0.2,0.3-0.4,0.6-0.2,0.8s-0.2,0.8-0.2,0.8s-1.5,2-2.6,1.7c-1.1-0.3-2.6-0.6-2.6-0.8c-0.1-0.2-2.7-2.3-2.7-2.6
		  c-0.1-0.2-1.2-1.3-1.2-1.4s-0.7,1.4,2.1,3.7c0.8,0.7,3,2.7,5.4,2.4c2.3-0.2,2.7-2.8,2.8-3s0.7-0.9,0.7-0.9c0.1-0.6,0.1-1.2-0.1-1.8
		  C35.3,31,32.3,25.1,32,25c-1.6-0.7-4.9-6.5-5.5-7.4s-4-3.5-6.2-2.8c-2.3,0.7-3.5,5.4-3.1,7.9C17.5,25.1,17.8,26.7,17.8,26.7z"/>
     <path class="huella-04" d="M23.4,27.3c-1.7-2.8-2.3-4.7-1.5-5.9s3.2,0.3,3.2,0.3s1,1.7,1,2.2c0.1,0.5,4,7.4,4.1,7.6
		  s1,1.5,1,1.5s-0.1,0.4-0.5,0.3s-0.6,0.4-1,0.1c-0.4-0.3-2.4-2.6-2.3-3.2c0.1-0.7-0.7-2.5-0.7-2.7c-0.1-0.3-0.2-2.7-1.4-3.3
		  s-1.4,0.1-1.5,0.4c-0.1,0.2,1.5,2.8,1.5,2.8s0.7,1,1.2,3.1c0.5,2,2.9,4.3,3.2,4.3c0.2,0.1,0.4,0.1,0.6,0.2l0.4,0.1
		  c0.7-0.2,1.3-0.7,1.8-1.2c0.7-1-1-3.2-1.3-3.5c-0.2-0.4-3.6-5.7-4-6c-0.3-0.3-0.1-1.1-1.3-2.8c-1.2-1.7-2.9-2.1-3.5-1.9
		  c-1.8,0.7-2.1,2.6-2.3,3.2c-0.1,0.5,0.3,1.5,0.3,1.5l1,2.9c0,0,1.3,3.2,2.3,3.9c1,0.6,1.2-1,1.2-1S25.1,30.1,23.4,27.3z"/>
   </g>

   <circle class="circle" cx="25" cy="25" r="22.5" fill="none"/>
  </g>
</svg>
